<svg id="Layer_1" data-name="Layer 1" xmlns="http://www.w3.org/2000/svg" viewBox="0 0 960 188"><defs><style>.cls-1{fill:#ffb000;}</style></defs><rect class="cls-1" x="-0.48" y="123.01" width="162.27" height="39.15"/><circle class="cls-1" cx="555.21" cy="97.19" r="17.69"/><path d="M-.48,114.79V26.59H12.16V64.37H27.77V26.59H40.41v88.19H27.77V75.51H12.16v39.27Z"/><path d="M52.29,114.79V26.59H90V38.48h-25V64.37h21.8V76.26H64.93v25.89H90v12.64Z"/><path d="M98.12,114.79V26.59h12.64v75.56h25v12.64Z"/><path d="M144,114.79V26.59h18.95A28.18,28.18,0,0,1,172.08,28a17.58,17.58,0,0,1,7.18,4.83,18.92,18.92,0,0,1,4.46,8.11A51,51,0,0,1,185,53.46a62.81,62.81,0,0,1-.68,10,20.77,20.77,0,0,1-2.91,7.68,18.42,18.42,0,0,1-6.94,6.75q-4.34,2.42-11.4,2.41h-6.44v34.45H144Zm12.63-76.31v30h6.07a13,13,0,0,0,6-1.11,7.09,7.09,0,0,0,3.1-3.1,11.45,11.45,0,0,0,1.18-4.58c.12-1.82.19-3.84.19-6.07q0-3.1-.12-5.88a12.57,12.57,0,0,0-1.11-4.89,7,7,0,0,0-3-3.22,11.83,11.83,0,0,0-5.7-1.12h-6.59Z"/><path d="M225.71,114.79V38.48H211.09V26.59H253V38.48H238.34v76.3Z"/><path d="M256.31,47.4A22.45,22.45,0,0,1,258.17,38a19.73,19.73,0,0,1,5-6.81,21,21,0,0,1,6.75-4,22.53,22.53,0,0,1,22.11,4A20.86,20.86,0,0,1,296.82,38a22.51,22.51,0,0,1,1.86,9.41V94a22.27,22.27,0,0,1-1.86,9.54,19.72,19.72,0,0,1-4.83,6.57,21.35,21.35,0,0,1-6.87,4.09,22,22,0,0,1-15.24,0,19.82,19.82,0,0,1-6.75-4.09,18.69,18.69,0,0,1-5-6.57A22.27,22.27,0,0,1,256.31,94ZM268.94,94q0,4.59,2.54,6.75a9.41,9.41,0,0,0,12,0Q286,98.56,286,94V47.4c0-3-.85-5.32-2.54-6.75a9.41,9.41,0,0,0-12,0q-2.53,2.18-2.54,6.75Z"/><path d="M332.11,47.4A22.45,22.45,0,0,1,334,38a19.93,19.93,0,0,1,4.95-6.81,21,21,0,0,1,6.75-4,22.53,22.53,0,0,1,22.11,4A20.86,20.86,0,0,1,372.61,38a22.48,22.48,0,0,1,1.86,9.41v4.46H361.84V47.39c0-3-.85-5.31-2.54-6.75a9.41,9.41,0,0,0-12,0q-2.53,2.18-2.54,6.75V94q0,4.59,2.54,6.75a9.41,9.41,0,0,0,12,0q2.54-2.16,2.54-6.75V77.38h-10V66.23h22.67V94a22.27,22.27,0,0,1-1.86,9.54,19.72,19.72,0,0,1-4.83,6.57,21.35,21.35,0,0,1-6.87,4.09,22,22,0,0,1-15.24,0,19.82,19.82,0,0,1-6.75-4.09,18.55,18.55,0,0,1-4.95-6.57A22.27,22.27,0,0,1,332.12,94V47.4Z"/><path d="M385.63,114.79V26.59h20.31q22.29,0,22.3,25.89a32.6,32.6,0,0,1-2.42,13.25,18.69,18.69,0,0,1-8.49,8.79L431,114.78H417.58L405.81,77.11h-7.56v37.67H385.63Zm12.63-76.31V66h7.18a12.75,12.75,0,0,0,5.33-.93,7.33,7.33,0,0,0,3.1-2.66,12.19,12.19,0,0,0,1.36-4.27,40.7,40.7,0,0,0,.37-5.88,40.94,40.94,0,0,0-.37-5.89,11.8,11.8,0,0,0-1.49-4.4q-2.36-3.47-8.92-3.47Z"/><path d="M437.65,47.4A22.45,22.45,0,0,1,439.51,38a19.93,19.93,0,0,1,4.95-6.81,21,21,0,0,1,6.75-4,22.53,22.53,0,0,1,22.11,4A20.86,20.86,0,0,1,478.15,38,22.48,22.48,0,0,1,480,47.39V94a22.27,22.27,0,0,1-1.86,9.54,19.72,19.72,0,0,1-4.83,6.57,21.35,21.35,0,0,1-6.87,4.09,22,22,0,0,1-15.24,0,19.82,19.82,0,0,1-6.75-4.09,18.55,18.55,0,0,1-4.95-6.57A22.27,22.27,0,0,1,437.65,94ZM450.29,94q0,4.59,2.54,6.75a9.41,9.41,0,0,0,12,0q2.53-2.16,2.54-6.75V47.4c0-3-.85-5.32-2.54-6.75a9.41,9.41,0,0,0-12,0q-2.54,2.18-2.54,6.75Z"/><path d="M555.21,26.59l-13.13,88.19H530.19l-9.66-57.23h-.25l-9.54,57.23H498.85l-13.13-88.2H499.1l6.32,56h.25l9.91-56h9.66l10.28,57.35h.25l6.07-57.35Z"/><path d="M6.64,128.31h7.09c5.17,0,8.81.62,12,3.73A15.74,15.74,0,0,1,30,143.39c0,5-1.88,9.22-5,11.68-3.36,2.62-6.85,2.67-11.15,2.67H6.64Zm5.61,5.48v18.46H15.2c3.08,0,5.25-.42,7-2.26a10,10,0,0,0,2.17-6.72c0-6.15-3.4-9.47-9.8-9.47Z"/><path d="M34.89,128.31h5.62v29.44H34.89Z"/><path d="M76.05,142.78c0,4-.57,7.3-3.53,10.78a13.65,13.65,0,0,1-11.11,4.91c-9.8,0-15.95-7.25-15.95-15.61s6.48-15.25,15.79-15.25A15.91,15.91,0,0,1,74,133.1L70,137a11.52,11.52,0,0,0-8.73-4,9.92,9.92,0,0,0-10.17,10A10.25,10.25,0,0,0,61.66,153.1c3.9,0,6.48-1.6,8.08-5H61.21v-5.32Z"/><path d="M80.82,128.31h5.62v29.44H80.82Z"/><path d="M89.8,128.31h16.28v5.48h-5.41v23.94H95.05V133.79H89.8Z"/><path d="M116,128.31h5.66l11.36,29.44h-5.82l-2.3-6.08h-12l-2.42,6.08h-5.82Zm2.87,7.79L115,146.19h7.79Z"/><path d="M137.4,128.31H143v24.11h8.16v5.33H137.4Z"/></svg>
